
<svg width="20px" height="12px" viewBox="10 14 20 12" version="1.1" xmlns="http://www.w3.org/2000/svg" xmlns:xlink="http://www.w3.org/1999/xlink">
    <!-- Generator: Sketch 41.2 (35397) - http://www.bohemiancoding.com/sketch -->
    <desc>Created with Sketch.</desc>
    <defs></defs>
    <g id="Group-3" stroke="none" stroke-width="1" fill="none" fill-rule="evenodd" transform="translate(10.000000, 14.000000)">
        <g id="Group-12" fill="#293038">
            <path d="M12,8 L12,2.99703014 C12,2.45303631 11.5522847,2 11,2 C10.4438648,2 10,2.4463856 10,2.99703014 L10,9.00296986 C10,9.27447923 10.1115279,9.52333066 10.2919208,9.70450726 C10.473337,9.88942815 10.7221975,10 10.9970301,10 L17.0029699,10 C17.5469637,10 18,9.55228475 18,9 C18,8.44386482 17.5536144,8 17.0029699,8 L12,8 Z" id="Combined-Shape" transform="translate(14.000000, 6.000000) rotate(45.000000) translate(-14.000000, -6.000000) "></path>
            <path d="M4,8 L4,2.99703014 C4,2.45303631 3.55228475,2 3,2 C2.44386482,2 2,2.4463856 2,2.99703014 L2,9.00296986 C2,9.27447923 2.11152791,9.52333066 2.29192076,9.70450726 C2.47333703,9.88942815 2.72219753,10 2.99703014,10 L9.00296986,10 C9.54696369,10 10,9.55228475 10,9 C10,8.44386482 9.5536144,8 9.00296986,8 L4,8 Z" id="Combined-Shape" transform="translate(6.000000, 6.000000) scale(-1, 1) rotate(45.000000) translate(-6.000000, -6.000000) "></path>
        </g>
    </g>
</svg>