
<svg width="220px" height="150px" viewBox="638 460 220 150" version="1.1" xmlns="http://www.w3.org/2000/svg" xmlns:xlink="http://www.w3.org/1999/xlink">
    <!-- Generator: Sketch 39.1 (31720) - http://www.bohemiancoding.com/sketch -->
    <desc>Created with Sketch.</desc>
    <defs>
        <rect id="path-1" x="638" y="460" width="220" height="150" rx="2"></rect>
        <mask id="mask-2" maskContentUnits="userSpaceOnUse" maskUnits="objectBoundingBox" x="0" y="0" width="220" height="150" fill="white">
            <use xlink:href="#path-1"></use>
        </mask>
        <mask id="mask-4" maskContentUnits="userSpaceOnUse" maskUnits="objectBoundingBox" x="0" y="0" width="220" height="150" fill="white">
            <use xlink:href="#path-1"></use>
        </mask>
    </defs>
    <mask id="mask-3" fill="white">
        <use xlink:href="#path-1"></use>
    </mask>
    <g id="Mask" stroke="#F3F4F5" mask="url(#mask-2)" stroke-width="4" fill="#F7F7F7" fill-rule="evenodd">
        <use mask="url(#mask-4)" xlink:href="#path-1"></use>
    </g>
    <path d="M743,533.152225 L743,554.651054 C743,554.98829 743.168831,555.241218 743.337662,555.494145 C743.422078,555.578454 743.422078,555.578454 743.506494,555.662763 C743.506494,555.662763 743.590909,555.662763 743.590909,555.747073 C743.75974,555.915691 744.012987,556 744.266234,556 L744.519481,556 L744.688312,556 C747.811688,555.747073 750.175325,553.133489 750.175325,550.014052 L750.175325,533.489461 L750.175325,533.067916 C750.175325,529.864169 752.792208,527.250585 756,527.250585 C759.207792,527.250585 761.824675,529.864169 761.824675,533.067916 C761.74026,534.416862 761.149351,535.681499 760.305195,536.608899 L760.136364,536.777518 C759.207792,537.704918 758.363636,538.210773 757.181818,538.210773 C757.012987,538.210773 756.928571,538.126464 756.844156,538.042155 C756.675325,537.873536 756.75974,537.704918 756.75974,537.704918 L756.75974,536.018735 C756.75974,535.934426 756.75974,535.850117 756.675325,535.765808 C756.506494,535.59719 756.253247,535.59719 756.084416,535.765808 L751.61039,540.234192 C751.357143,540.487119 751.272727,540.824356 751.272727,541.161593 C751.272727,541.498829 751.357143,541.751756 751.61039,542.004684 L756,546.810304 L756.084416,546.894614 C756.168831,546.978923 756.253247,546.978923 756.337662,546.978923 C756.590909,546.978923 756.75974,546.810304 756.75974,546.557377 L756.75974,544.786885 C756.75974,544.449649 757.097403,544.28103 757.266234,544.28103 L757.435065,544.28103 C764.779221,544.28103 768.746753,539.644028 769,533.152225 C769,525.901639 763.344156,520 756,520 C748.824675,520 743,525.648712 743,533.152225 Z" id="Shape" stroke="none" fill="#DFDFDF" fill-rule="evenodd"></path>
</svg>