
<svg width="9px" height="18px" viewBox="0 0 9 18" version="1.1" xmlns="http://www.w3.org/2000/svg" xmlns:xlink="http://www.w3.org/1999/xlink">
    <!-- Generator: Sketch 39.1 (31720) - http://www.bohemiancoding.com/sketch -->
    <desc>Created with Sketch.</desc>
    <defs></defs>
    <g id="transportation-icons-21" stroke="none" stroke-width="1" fill="none" fill-rule="evenodd">
        <path d="M8.0586,7.3017 L6.34905,7.3017 L4.806,4.71015 C4.80015,4.7007 4.7907,4.69575 4.78485,4.68675 C4.7574,4.6467 4.72455,4.6116 4.68675,4.5792 C4.67145,4.5657 4.65885,4.5495 4.6422,4.5378 C4.6377,4.5351 4.63455,4.53015 4.63005,4.52745 C4.57785,4.4928 4.52115,4.46895 4.4631,4.45365 C4.45455,4.4514 4.44555,4.45275 4.43655,4.45095 C4.3803,4.43925 4.3236,4.4361 4.26735,4.4415 C4.2444,4.44375 4.22325,4.45095 4.20075,4.4559 C4.15575,4.4658 4.11345,4.4802 4.0716,4.50135 C4.05945,4.50765 4.0464,4.50765 4.0347,4.5144 C4.02345,4.52115 4.01805,4.53195 4.00725,4.53915 C3.9933,4.54905 3.9771,4.554 3.9636,4.56525 L1.5165,6.5934 C1.4274,6.6672 1.36305,6.7671 1.3329,6.87915 L0.81765,8.7795 C0.73665,9.0792 0.9135,9.3879 1.2132,9.46935 C1.51245,9.5517 1.82205,9.3735 1.90305,9.0738 L2.37195,7.34535 L3.42225,6.4746 C3.2301,7.5915 3.0726,9.1179 3.2724,10.5282 L2.7594,14.0616 L0.5148,16.67475 C0.31185,16.9101 0.3393,17.26515 0.57465,17.46765 C0.68085,17.55855 0.81135,17.60355 0.94095,17.60355 C1.09935,17.60355 1.25685,17.5374 1.368,17.4078 L3.71925,14.6709 C3.78855,14.5899 3.834,14.49045 3.8493,14.38515 L4.22325,11.8125 L5.4153,13.1517 L6.6834,17.2089 C6.75855,17.4492 6.98085,17.60355 7.22025,17.60355 C7.2756,17.60355 7.3323,17.59545 7.3881,17.57835 C7.68465,17.4852 7.8498,17.16975 7.7571,16.8732 L6.453,12.70035 C6.4287,12.6243 6.3891,12.55365 6.336,12.49425 L4.3731,10.28925 C4.20255,8.98065 4.3767,7.52715 4.563,6.50115 L5.5458,8.15175 C5.6475,8.3223 5.8311,8.4267 6.02955,8.4267 L8.0586,8.4267 C8.36955,8.4267 8.6211,8.1747 8.6211,7.8642 C8.6211,7.55325 8.36955,7.3017 8.0586,7.3017" id="Fill-1" fill="#1B1A18"></path>
        <path d="M5.41755,1.52145 C5.7285,1.52145 5.98185,1.77435 5.98185,2.0862 C5.98185,2.39715 5.7285,2.6505 5.41755,2.6505 C5.1066,2.6505 4.85325,2.39715 4.85325,2.0862 C4.85325,1.77435 5.1066,1.52145 5.41755,1.52145 Z M5.41755,3.7755 C6.34905,3.7755 7.10685,3.0177 7.10685,2.0862 C7.10685,1.15425 6.34905,0.39645 5.41755,0.39645 C4.48605,0.39645 3.72825,1.15425 3.72825,2.0862 C3.72825,3.0177 4.48605,3.7755 5.41755,3.7755 L5.41755,3.7755 Z" id="Fill-2" fill="#1B1A18"></path>
    </g>
</svg>